<svg width="24" height="24" viewBox="0 0 24 24" fill="none" xmlns="http://www.w3.org/2000/svg">
<path d="M12 2C6.49 2 2 6.49 2 12C2 13.85 2.5 15.62 3.44 17.19L2 22L6.91 20.61C8.41 21.47 10.16 22 12 22C17.51 22 22 17.51 22 12C22 6.49 17.51 2 12 2Z" fill="#25D366"></path>
<path d="M12 4C16.41 4 20 7.59 20 12C20 16.41 16.41 20 12 20C10.44 20 8.94 19.51 7.69 18.62L7.39 18.41L4.5 19.2L5.31 16.41L5.16 16.15C4.42 15.07 4 13.78 4 12C4 7.59 7.59 4 12 4Z" fill="white"></path>
<path d="M17 14.5C16.7 15.2 15.41 15.9 14.81 16C14.21 16.1 13.91 16.1 13.41 15.9C12.91 15.7 12.01 15.4 10.91 14.5C9.91 13.6 9.21 12.41 9.01 12C8.81 11.59 9.01 11.29 9.21 11.09C9.41 10.89 9.61 10.69 9.81 10.39C10.01 10.09 10.01 9.69 9.91 9.39C9.81 9.09 9.21 7.89 8.91 7.29C8.51 6.49 8.11 6.59 7.81 6.59C7.51 6.59 7.11 6.59 6.81 6.59C6.41 6.59 5.91 6.89 5.61 7.19C5.31 7.49 4.91 8.09 4.91 9.09C4.91 10.09 5.71 11.49 6.01 12.09C6.31 12.69 7.41 14.29 9.11 15.69C11.01 17.29 13.01 18 14.01 18C15.01 18 15.71 17.39 16.01 17.09C16.31 16.79 16.81 16.09 17.01 15.49C17.21 14.89 17.21 14.29 17.01 14C16.91 13.9 16.21 14.39 17 14.5Z" fill="#25D366"></path>
</svg>
